<?xml version="1.0" encoding="UTF-8"?>
<svg id="Capa_2" data-name="Capa 2" xmlns="http://www.w3.org/2000/svg" viewBox="0 0 82 81.85">
  <defs>
    <style>
      .cls-1 {
        fill: #6262bf;
      }
    </style>
  </defs>
  <g id="Capa_1-2" data-name="Capa 1">
    <g>
      <path class="cls-1" d="M82,19.34v58.51c-.66,2.12-2.26,3.8-4.56,4H19.95c-2.37-.2-4.36-2.19-4.56-4.56V20.06c.11-2.44,2.14-4.51,4.56-4.71h57.65c2.23.31,3.76,1.92,4.41,4ZM76.88,20.46H20.51v56.27h56.36V20.46Z"/>
      <path class="cls-1" d="M62.63,0c1.14.43,2.2.92,2.97,1.91.28.36,1.04,1.78,1.04,2.16v6.15h-5.12v-5.12H5.14v56.27h5.12v5.12h-6.16c-1.72,0-4.31-2.89-4.09-4.71V4.4C.32,2.17,1.94.64,4.02,0h58.6Z"/>
      <path class="cls-1" d="M42.89,43.52c1.12-.23,1.83.1,2.68.77l8.19,8.14c2.04-1.33,3.89-5.32,6.84-3.32l10.58,10.54c1.28,1.61.46,4.21-1.74,4.31l-42.04-.08c-1.62-.66-2.33-2.5-1.28-4l15.85-15.83c.25-.2.6-.45.92-.52Z"/>
      <path class="cls-1" d="M60.51,33.29c7.34-1.07,8.13,9.25,2,10.15-7.34,1.07-8.13-9.25-2-10.15Z"/>
    </g>
  </g>
</svg>