<?xml version="1.0" encoding="UTF-8"?>
<svg id="Capa_1" data-name="Capa 1" xmlns="http://www.w3.org/2000/svg" viewBox="0 0 150 150">
  <defs>
    <style>
      .cls-1 {
        fill: #fff;
      }
    </style>
  </defs>
  <g>
    <path class="cls-1" d="M138.84,69.9v10.45l-1.07,7.02c-4.76,25.26-25.19,45.59-50.4,50.4l-7.02,1.07h-10.45l-7.02-1.07c-6.98-1.27-13.38-4.15-19.73-7.16l-25.27,8.22h-2.99c-2.56-1.33-3.87-3.06-3.46-6.08l8.2-25.66C2.38,75.93,12.9,36.63,44.09,19.33c40.51-22.46,90.73,4.49,94.52,50.18l.23.4ZM24.35,125.9l18.41-5.86c2.81-.77,4.95,1.37,7.23,2.51,37.18,18.56,79.74-7.53,78.66-49.04-1.16-44.41-53.39-68.16-87.73-39.69-20.2,16.75-24.7,43.74-12.96,66.95,1.25,2.48,2.83,3.54,2.26,6.73l-5.86,18.41Z"/>
    <path class="cls-1" d="M48.93,99.38c9.68-1.44,10.16,13,.67,12.39-7.23-.46-7.41-11.38-.67-12.39Z"/>
    <path class="cls-1" d="M73.82,99.38c9.68-1.44,10.16,13,.67,12.39-7.23-.46-7.41-11.38-.67-12.39Z"/>
    <path class="cls-1" d="M98.71,99.38c9.68-1.44,10.16,13,.67,12.39-7.23-.46-7.41-11.38-.67-12.39Z"/>
  </g>
  <path class="cls-1" d="M81.91,82.22l-3.72,4.06c-12.6,11.41-30.2,5.77-28.65-13.53,1.25-15.5,20.06-15.71,31.22-15.49.98-10.79-8.44-12.54-16.24-9.07-1.5.67-4.31,2.88-5.71,3.05-4.66.59-7.35-7.76-5.99-11.41,1.7-4.57,11.26-7.23,15.5-7.78,14.57-1.9,29.03,4.39,30.77,21.15l-.14,33.25c-3.91,7.2-18.32,5.78-17.06-4.22ZM80.76,66.59h-4.44c-1.75,0-5.16.96-6.59,2.11-2.99,2.4-2.47,8.05,1.7,8.43,5.14.46,9.79-5.34,9.33-10.54Z"/>
</svg>