<?xml version="1.0" encoding="UTF-8"?>
<svg id="Capa_2" data-name="Capa 2" xmlns="http://www.w3.org/2000/svg" viewBox="0 0 95.84 95.86">
  <defs>
    <style>
      .cls-1 {
        fill: #6262bf;
      }
    </style>
  </defs>
  <g id="Capa_1-2" data-name="Capa 1">
    <g>
      <path class="cls-1" d="M95.84,27.4v60c0,3.68-5.5,8.65-9.3,8.46H8.88c-3.63-.07-8.88-4.88-8.88-8.46V27.4h95.84ZM16.85,37.72c-1.82.27-2.92,1.47-3.13,3.28-.38,3.13-.31,10.25-.03,13.46.18,2.14,1.37,3.52,3.54,3.73,3.27.33,9.96.29,13.27.01,2.14-.18,3.52-1.37,3.73-3.54.33-3.27.29-9.96.01-13.27-.18-2.14-1.37-3.52-3.54-3.73-2.95-.3-11.01-.36-13.85.05ZM44.23,37.72c-4.33.75-4.01,6.35.37,6.79h34.01c4.6-.46,4.6-6.38,0-6.84l-34.38.05ZM44.23,51.41c-4.33.75-4.01,6.35.37,6.79h34.01c4.6-.46,4.6-6.38,0-6.84l-34.38.05ZM16.85,65.1c-4.33.75-4.01,6.35.37,6.79h61.39c4.6-.46,4.6-6.38,0-6.84l-61.76.05ZM16.85,78.79c-4.33.75-4.01,6.35.37,6.79h44.28c4.6-.46,4.6-6.38,0-6.84l-44.65.05Z"/>
      <path class="cls-1" d="M95.84,20.55H0v-12.09C0,4.89,5.25.07,8.88.02h77.66c3.79-.21,9.3,4.77,9.3,8.45v12.09ZM64.77,6.9c-5.41.42-2.78,8.9,1.83,6.34,3.28-1.82,1.55-6.61-1.83-6.34ZM78.46,6.9c-5.41.42-2.78,8.9,1.83,6.34,3.28-1.82,1.55-6.61-1.83-6.34Z"/>
      <rect class="cls-1" x="20.54" y="44.51" width="6.85" height="6.85"/>
    </g>
  </g>
</svg>